#N canvas 412 1176 599 502 10;
#X obj 249 222 +;
#X obj 249 156 *;
#X obj 281 222 f;
#X obj 307 147 t f b;
#X msg 307 191 0;
#X obj 307 118 spigot;
#X obj 398 101 int;
#X obj 249 65 r dir;
#X obj 264 134 r inc;
#X obj 307 94 r val;
#X obj 398 70 r ena\$1;
#X obj 281 260 s n\$1;
#X obj 350 261 outlet;
#X obj 249 113 spigot;
#X connect 0 0 2 0;
#X connect 1 0 0 0;
#X connect 2 0 0 1;
#X connect 2 0 11 0;
#X connect 2 0 12 0;
#X connect 3 0 0 0;
#X connect 3 1 4 0;
#X connect 4 0 0 1;
#X connect 5 0 3 0;
#X connect 6 0 5 1;
#X connect 6 0 13 1;
#X connect 7 0 13 0;
#X connect 8 0 1 1;
#X connect 9 0 5 0;
#X connect 10 0 6 0;
#X connect 13 0 1 0;
#X coords 0 502 1 501 85 19 0;
