#N canvas 302 133 740 542 10;
#X obj 84 225 t f b;
#X obj 99 253 f;
#X obj 84 273 -;
#X obj 33 313 sel 1;
#X obj 33 292 < 2;
#X obj -3 313 sel 1;
#X msg -3 334 3;
#X text -13 226 infinit slider;
#N canvas 368 302 678 550 daque 0;
#X obj 420 500 dac~;
#X obj 409 472 *~;
#X obj 442 472 *~;
#X msg 481 437 \$1 20;
#X msg 425 415 \$1 20;
#X obj 268 302 == 0;
#X obj 481 418 r lg;
#X obj 268 249 r flip;
#X obj 425 396 r rg;
#X obj 299 174 *~;
#X obj 333 139 osc~;
#X obj 299 200 lop~ 120;
#X obj 298 139 osc~;
#X obj 380 174 *~;
#X obj 414 139 osc~;
#X obj 380 200 lop~ 120;
#X obj 379 139 osc~;
#X obj 457 174 *~;
#X obj 491 139 osc~;
#X obj 457 200 lop~ 120;
#X obj 456 139 osc~;
#X obj 540 174 *~;
#X obj 574 139 osc~;
#X obj 540 200 lop~ 120;
#X obj 539 139 osc~;
#X obj 366 283 *~;
#X obj 458 283 *~;
#X obj 297 8 r n1;
#X obj 573 8 r n8;
#X obj 617 101 r phs;
#X msg 617 122 0.5;
#X obj 367 303 *~ 0.5;
#X obj 459 303 *~ 0.5;
#X obj 332 8 r n5;
#X obj 378 8 r n2;
#X obj 413 8 r n6;
#X obj 455 8 r n3;
#X obj 490 8 r n7;
#X obj 538 8 r n4;
#X obj 203 266 sel 1;
#X obj 203 288 s phs;
#X obj 297 40 sig~;
#X obj 297 108 +~;
#X obj 332 40 sig~;
#X obj 332 108 +~;
#X obj 378 40 sig~;
#X obj 378 108 +~;
#X obj 413 40 sig~;
#X obj 413 108 +~;
#X obj 455 40 sig~;
#X obj 455 108 +~;
#X obj 490 40 sig~;
#X obj 490 108 +~;
#X obj 538 40 sig~;
#X obj 538 108 +~;
#X obj 573 40 sig~;
#X obj 573 108 +~;
#X obj 207 67 r bump;
#X obj 207 90 line~;
#X obj 308 325 sig~;
#X obj 268 325 sig~;
#X obj 363 365 *~;
#X obj 459 366 *~;
#X obj 322 371 *~;
#X obj 418 372 *~;
#X obj 425 434 vline~;
#X obj 481 456 vline~;
#X connect 1 0 0 0;
#X connect 2 0 0 1;
#X connect 3 0 66 0;
#X connect 4 0 65 0;
#X connect 5 0 60 0;
#X connect 6 0 3 0;
#X connect 7 0 5 0;
#X connect 7 0 39 0;
#X connect 7 0 59 0;
#X connect 8 0 4 0;
#X connect 9 0 11 0;
#X connect 10 0 9 1;
#X connect 11 0 25 0;
#X connect 12 0 9 0;
#X connect 13 0 15 0;
#X connect 14 0 13 1;
#X connect 15 0 25 1;
#X connect 16 0 13 0;
#X connect 17 0 19 0;
#X connect 18 0 17 1;
#X connect 19 0 26 0;
#X connect 20 0 17 0;
#X connect 21 0 23 0;
#X connect 22 0 21 1;
#X connect 23 0 26 1;
#X connect 24 0 21 0;
#X connect 25 0 31 0;
#X connect 26 0 32 0;
#X connect 27 0 41 0;
#X connect 28 0 55 0;
#X connect 29 0 30 0;
#X connect 30 0 22 1;
#X connect 30 0 24 1;
#X connect 30 0 18 1;
#X connect 30 0 20 1;
#X connect 30 0 14 1;
#X connect 30 0 16 1;
#X connect 30 0 10 1;
#X connect 30 0 12 1;
#X connect 31 0 61 1;
#X connect 31 0 63 1;
#X connect 32 0 62 1;
#X connect 32 0 64 1;
#X connect 33 0 43 0;
#X connect 34 0 45 0;
#X connect 35 0 47 0;
#X connect 36 0 49 0;
#X connect 37 0 51 0;
#X connect 38 0 53 0;
#X connect 39 0 40 0;
#X connect 41 0 42 0;
#X connect 42 0 12 0;
#X connect 43 0 44 0;
#X connect 44 0 10 0;
#X connect 45 0 46 0;
#X connect 46 0 16 0;
#X connect 47 0 48 0;
#X connect 48 0 14 0;
#X connect 49 0 50 0;
#X connect 50 0 20 0;
#X connect 51 0 52 0;
#X connect 52 0 18 0;
#X connect 53 0 54 0;
#X connect 54 0 24 0;
#X connect 55 0 56 0;
#X connect 56 0 22 0;
#X connect 57 0 58 0;
#X connect 58 0 42 1;
#X connect 58 0 44 1;
#X connect 58 0 46 1;
#X connect 58 0 48 1;
#X connect 58 0 50 1;
#X connect 58 0 52 1;
#X connect 58 0 54 1;
#X connect 58 0 56 1;
#X connect 59 0 62 0;
#X connect 59 0 61 0;
#X connect 60 0 63 0;
#X connect 60 0 64 0;
#X connect 61 0 1 0;
#X connect 62 0 2 0;
#X connect 63 0 2 0;
#X connect 64 0 1 0;
#X connect 65 0 1 1;
#X connect 66 0 2 1;
#X restore 338 383 pd daque;
#X obj 33 386 s injump;
#X obj 84 181 r infi;
#X text 411 204 rg right gain;
#X text 411 219 lg left gain;
#X text 412 234 n(1-8) values;
#X text 420 328 getback;
#X text 412 260 flip;
#X text 412 284 infi infinit slider;
#X text 412 295 incr increment;
#X text 421 335 setval;
#X text 418 271 add;
#X text 414 244 ena(1-8) enable;
#X obj 96 388 s dir;
#X obj 338 210 numr 1;
#X text 426 385 numberbox 50 20 n*;
#X obj 84 203 int;
#X msg 33 334 40;
#X obj -3 292 > 40;
#X obj 84 317 t f f;
#X obj 84 339 abs;
#X obj 84 295 sel 0;
#X obj 96 368 /;
#X obj 157 300 r new;
#X obj 157 355 s phs;
#X obj 594 366 r val;
#X floatatom 594 387 5 0 0 0 - - -;
#X floatatom 631 387 5 0 0 0 - - -;
#X obj 631 366 r inc;
#X text 412 178 rndm engage shape cycling;
#X text 413 164 new create new shape.;
#X text 406 153 spd speed of change;
#N canvas 641 118 467 427 seq 0;
#X obj 118 29 r rndm;
#X obj 118 50 == 0;
#X obj 76 66 spigot;
#X obj -8 -13 r shp1;
#X obj 34 -13 r shp2;
#X obj 76 -13 r shp3;
#X obj 118 -13 r shp4;
#X msg -8 8 1;
#X msg 34 8 2;
#X msg 76 8 3;
#X msg 118 8 4;
#X obj 76 87 s save;
#X obj 211 7 r spd;
#X obj 183 92 metro;
#X obj 183 72 int;
#X obj 211 28 t b f;
#X obj 183 112 random 4;
#X obj 183 132 + 1;
#X obj 183 153 s load;
#X obj 134 149 t b;
#X obj 134 171 s phs;
#X connect 0 0 1 0;
#X connect 0 0 14 0;
#X connect 1 0 2 1;
#X connect 2 0 11 0;
#X connect 3 0 7 0;
#X connect 4 0 8 0;
#X connect 5 0 9 0;
#X connect 6 0 10 0;
#X connect 7 0 2 0;
#X connect 8 0 2 0;
#X connect 9 0 2 0;
#X connect 10 0 2 0;
#X connect 12 0 15 0;
#X connect 13 0 16 0;
#X connect 14 0 13 0;
#X connect 15 0 14 0;
#X connect 15 1 13 1;
#X connect 16 0 17 0;
#X connect 17 0 18 0;
#X connect 17 0 19 0;
#X connect 19 0 20 0;
#X restore 606 201 pd seq;
#N canvas 550 196 546 454 clk 0;
#X obj 60 96 timer;
#X obj 60 116 min 3000;
#X obj 60 136 sel 3000;
#X obj 50 309 metro;
#X obj 60 71 t b b b;
#X msg 50 289 1;
#X obj 105 215 list prepend;
#X obj 105 156 t b f;
#X obj 105 195 list;
#X obj 105 235 list split 5;
#X obj 60 46 r tap;
#X obj 50 349 s clk;
#X obj 50 329 spigot;
#X obj 116 312 r go;
#X obj 105 264 expr ($f1+$f2+$f3+$f4+$f5)/5;
#X connect 0 0 1 0;
#X connect 1 0 2 0;
#X connect 2 1 7 0;
#X connect 3 0 12 0;
#X connect 4 0 0 0;
#X connect 4 1 0 1;
#X connect 4 2 5 0;
#X connect 5 0 3 0;
#X connect 6 0 9 0;
#X connect 7 0 8 0;
#X connect 7 1 6 1;
#X connect 8 0 6 0;
#X connect 9 0 8 1;
#X connect 9 0 14 0;
#X connect 9 2 8 1;
#X connect 10 0 4 0;
#X connect 12 0 11 0;
#X connect 13 0 12 1;
#X connect 14 0 3 1;
#X restore 266 133 pd clk;
#X obj 343 160 r tap;
#X obj 280 168 s clk;
#X obj 346 131 r go;
#X obj 149 75 r inc;
#X obj 199 355 s val;
#X msg 199 331 110;
#X obj 266 390 s nbox;
#X obj 266 367 change;
#X obj 338 230 numr 2;
#X obj 338 250 numr 3;
#X obj 338 270 numr 4;
#X obj 338 290 numr 5;
#X obj 338 310 numr 6;
#X obj 338 330 numr 7;
#X obj 338 350 numr 8;
#X obj 202 194 r btime;
#X obj 196 164 r stren;
#X obj 158 164 r clk;
#X obj 164 192 f;
#X obj 163 223 pack f f;
#X msg 172 243 \$1 \, 0 \$2;
#X obj 176 263 s bump;
#X connect 0 0 1 1;
#X connect 0 0 2 0;
#X connect 0 0 4 0;
#X connect 0 0 26 0;
#X connect 0 1 1 0;
#X connect 1 0 2 1;
#X connect 2 0 29 0;
#X connect 3 0 25 0;
#X connect 4 0 3 0;
#X connect 5 0 6 0;
#X connect 6 0 9 0;
#X connect 10 0 24 0;
#X connect 22 0 49 0;
#X connect 24 0 0 0;
#X connect 25 0 9 0;
#X connect 26 0 5 0;
#X connect 27 0 28 0;
#X connect 27 1 30 1;
#X connect 28 0 30 0;
#X connect 29 1 27 0;
#X connect 30 0 21 0;
#X connect 31 0 47 0;
#X connect 33 0 34 0;
#X connect 36 0 35 0;
#X connect 47 0 46 0;
#X connect 49 0 48 0;
#X connect 50 0 49 0;
#X connect 51 0 49 0;
#X connect 52 0 49 0;
#X connect 53 0 49 0;
#X connect 54 0 49 0;
#X connect 55 0 49 0;
#X connect 56 0 49 0;
#X connect 57 0 61 1;
#X connect 58 0 60 1;
#X connect 59 0 60 0;
#X connect 60 0 61 0;
#X connect 61 0 62 0;
#X connect 62 0 63 0;
